<svg width="300" height="300" viewBox="0 0 300 300" fill="none" xmlns="http://www.w3.org/2000/svg">
<rect width="300" height="300" fill="#F9F9F9"/>
<path d="M115 128.571C115 123.844 118.868 120 123.625 120H175.375C180.132 120 184 123.844 184 128.571V171.429C184 176.156 180.132 180 175.375 180H123.625C118.868 180 115 176.156 115 171.429V128.571ZM158.637 142.835C158.031 141.951 157.033 141.429 155.969 141.429C154.904 141.429 153.893 141.951 153.3 142.835L141.576 159.924L138.004 155.491C137.385 154.728 136.455 154.286 135.484 154.286C134.514 154.286 133.571 154.728 132.964 155.491L124.339 166.205C123.558 167.17 123.409 168.496 123.948 169.607C124.488 170.719 125.62 171.429 126.859 171.429H139.797H144.109H172.141C173.34 171.429 174.445 170.772 174.998 169.714C175.55 168.656 175.483 167.384 174.809 166.406L158.637 142.835ZM130.094 141.429C131.809 141.429 133.455 140.751 134.668 139.546C135.881 138.34 136.562 136.705 136.562 135C136.562 133.295 135.881 131.66 134.668 130.454C133.455 129.249 131.809 128.571 130.094 128.571C128.378 128.571 126.733 129.249 125.52 130.454C124.307 131.66 123.625 133.295 123.625 135C123.625 136.705 124.307 138.34 125.52 139.546C126.733 140.751 128.378 141.429 130.094 141.429Z" fill="#B4B4B4"/>
</svg>
